name C:\Users\antoi\Documents\MyRepositories\upper-imu-dc\Results\main_tracking\Case_96\kinematics.mot
datacolumns 43
datarows 11
range 7.88000000 8.08000000
endheader 
time	clav_prot	clav_elev	scapula_abduction	scapula_elevation	scapula_upward_rot	scapula_winging	plane_elv	shoulder_elv	axial_rot	TrapeziusScapula_M/activation	TrapeziusScapula_S/activation	TrapeziusScapula_I/activation	TrapeziusClavicle_S/activation	SerratusAnterior_I/activation	SerratusAnterior_M/activation	SerratusAnterior_S/activation	Rhomboideus_S/activation	Rhomboideus_I/activation	LevatorScapulae/activation	Coracobrachialis/activation	DeltoideusClavicle_A/activation	DeltoideusScapula_P/activation	DeltoideusScapula_M/activation	LatissimusDorsi_S/activation	LatissimusDorsi_M/activation	LatissimusDorsi_I/activation	PectoralisMajorClavicle_S/activation	PectoralisMajorThorax_I/activation	PectoralisMajorThorax_M/activation	TeresMajor/activation	Infraspinatus_I/activation	Infraspinatus_S/activation	PectoralisMinor/activation	TeresMinor/activation	Subscapularis_S/activation	Subscapularis_M/activation	Subscapularis_I/activation	Supraspinatus_P/activation	Supraspinatus_A/activation	TRIlong/activation	BIC_long/activation	BIC_brevis/activation	
          7.88000000	        -40.21585432	          3.63303726	        -17.72193828	         -5.89622822	         49.86537800	         -8.89528158	         29.26913423	         81.37524142	         -3.50535191	          0.06713598	          0.11950999	          0.05760026	          0.05810612	          0.11081141	          0.12909222	          0.03578089	          0.03602627	          0.02885186	          0.03231524	          0.04424607	          0.10488673	          0.03041947	          0.17141355	          0.03037592	          0.01962653	          0.02044091	          0.04731871	          0.01920282	          0.03249550	          0.02863971	          0.06365650	          0.06688173	          0.02985867	          0.04297710	          0.04262231	          0.03854559	          0.03334744	          0.05729520	          0.05856430	          0.01729107	          0.05985968	          0.04864554	
          7.90000000	        -39.93663356	          3.53805545	        -17.85027361	         -5.88461320	         49.10321746	         -8.64622120	         28.84873011	         80.49073673	         -2.96021987	          0.06692016	          0.11839907	          0.05798933	          0.05776976	          0.11062663	          0.12589901	          0.03597709	          0.03619798	          0.02896106	          0.03243117	          0.04371470	          0.10136648	          0.03129687	          0.17048248	          0.03093367	          0.02023164	          0.02100598	          0.04685267	          0.01940977	          0.03232430	          0.02905470	          0.06278637	          0.06606756	          0.03007572	          0.04315280	          0.04255654	          0.03876686	          0.03378730	          0.05667809	          0.05777313	          0.01778715	          0.05925127	          0.04795671	
          7.92000000	        -39.66237412	          3.43767413	        -17.97736501	         -5.87444960	         48.34928637	         -8.39618984	         28.40352934	         79.57245412	         -2.44704912	          0.06685305	          0.11763807	          0.05846463	          0.05747219	          0.11073851	          0.12305403	          0.03610216	          0.03631942	          0.02900273	          0.03247384	          0.04313095	          0.09813446	          0.03225090	          0.16991922	          0.03143380	          0.02078260	          0.02150273	          0.04635745	          0.01952216	          0.03207213	          0.02943535	          0.06214196	          0.06544270	          0.03021427	          0.04337396	          0.04243583	          0.03891959	          0.03414771	          0.05610755	          0.05700971	          0.01827522	          0.05868104	          0.04724311	
          7.94000000	        -39.39624391	          3.33323144	        -18.10260248	         -5.86581867	         47.61117530	         -8.14814355	         27.92570467	         78.62361116	         -1.97499468	          0.06689123	          0.11724277	          0.05897713	          0.05723210	          0.11109353	          0.12060039	          0.03617526	          0.03640720	          0.02899126	          0.03247039	          0.04254984	          0.09519994	          0.03321442	          0.16961717	          0.03185470	          0.02125612	          0.02191666	          0.04586942	          0.01954243	          0.03176180	          0.02976605	          0.06172294	          0.06498526	          0.03026653	          0.04363571	          0.04227190	          0.03900928	          0.03442321	          0.05559955	          0.05631627	          0.01872986	          0.05817500	          0.04655174	
          7.96000000	        -39.14170330	          3.22661441	        -18.22569473	         -5.85860807	         46.89694922	         -7.90550546	         27.40832352	         77.64837290	         -1.55199660	          0.06698668	          0.11719503	          0.05947247	          0.05705873	          0.11159545	          0.11855225	          0.03621683	          0.03647831	          0.02894377	          0.03244810	          0.04201323	          0.09257760	          0.03412839	          0.16941842	          0.03218081	          0.02163155	          0.02223818	          0.04541633	          0.01948124	          0.03142057	          0.03003696	          0.06150115	          0.06465613	          0.03023120	          0.04393029	          0.04207826	          0.03904537	          0.03461611	          0.05516048	          0.05571960	          0.01912615	          0.05774699	          0.04591603	
          7.98000000	        -38.90217439	          3.11992077	        -18.34659559	         -5.85265576	         46.21445619	         -7.67179144	         26.84587752	         76.65181848	         -1.18324503	          0.06708560	          0.11740743	          0.05989184	          0.05695162	          0.11212973	          0.11687600	          0.03624708	          0.03655189	          0.02888406	          0.03243692	          0.04155851	          0.09026839	          0.03494323	          0.16910204	          0.03240791	          0.02190145	          0.02247002	          0.04502328	          0.01935912	          0.03107879	          0.03024810	          0.06142913	          0.06439910	          0.03011664	          0.04424616	          0.04187247	          0.03904297	          0.03473897	          0.05479379	          0.05524581	          0.01945254	          0.05740865	          0.04536572	
          8.00000000	        -38.68072528	          3.01497320	        -18.46539668	         -5.84797931	         45.57063552	         -7.45018017	         26.23470085	         75.63956548	         -0.87040985	          0.06712855	          0.11773995	          0.06017503	          0.05690283	          0.11257123	          0.11550020	          0.03628938	          0.03665095	          0.02884620	          0.03247348	          0.04123054	          0.08824265	          0.03559987	          0.16839080	          0.03254176	          0.02207540	          0.02263082	          0.04471957	          0.01921065	          0.03077506	          0.03040684	          0.06145268	          0.06415527	          0.02994199	          0.04456909	          0.04167527	          0.03902137	          0.03481072	          0.05450174	          0.05492219	          0.01971226	          0.05717053	          0.04493593	
          8.02000000	        -38.47979624	          2.91319787	        -18.58232683	         -5.84474630	         44.97089890	         -7.24324708	         25.57334549	         74.61699969	         -0.61173050	          0.06709527	          0.11810528	          0.06031076	          0.05690153	          0.11286757	          0.11435919	          0.03634976	          0.03678283	          0.02884350	          0.03256810	          0.04103475	          0.08646666	          0.03607989	          0.16718617	          0.03259649	          0.02216973	          0.02273559	          0.04451030	          0.01905005	          0.03052025	          0.03051973	          0.06152078	          0.06389486	          0.02972144	          0.04488245	          0.04150087	          0.03899516	          0.03485023	          0.05427984	          0.05475147	          0.01991371	          0.05703123	          0.04463141	
          8.04000000	        -38.30093028	          2.81583679	        -18.69769318	         -5.84302208	         44.41871411	         -7.05285214	         24.86258705	         73.58875169	         -0.40224552	          0.06695823	          0.11842680	          0.06027486	          0.05693867	          0.11296147	          0.11341951	          0.03643979	          0.03695536	          0.02889320	          0.03273589	          0.04099386	          0.08493682	          0.03634350	          0.16539412	          0.03258270	          0.02220131	          0.02280402	          0.04441106	          0.01890366	          0.03034047	          0.03058933	          0.06160132	          0.06359429	          0.02947414	          0.04517572	          0.04136134	          0.03897619	          0.03486952	          0.05412759	          0.05474571	          0.02005944	          0.05699545	          0.04446824	
          8.06000000	        -38.14453946	          2.72422435	        -18.81163270	         -5.84250753	         43.91552542	         -6.88011648	         24.10510634	         72.55835224	         -0.23491193	          0.06673553	          0.11870955	          0.06009001	          0.05700768	          0.11288986	          0.11268109	          0.03655257	          0.03715791	          0.02898482	          0.03296152	          0.04108202	          0.08365691	          0.03641063	          0.16315541	          0.03251063	          0.02217929	          0.02284041	          0.04440887	          0.01876954	          0.03022859	          0.03061551	          0.06167302	          0.06325958	          0.02920655	          0.04543955	          0.04125827	          0.03896823	          0.03487684	          0.05403836	          0.05488932	          0.02015016	          0.05705634	          0.04442538	
          8.08000000	        -38.00986822	          2.63978710	        -18.92387668	         -5.84252195	         43.46095196	         -6.72542481	         23.30500175	         71.52843269	         -0.10124985	          0.06641766	          0.11891303	          0.05974705	          0.05710211	          0.11264269	          0.11214090	          0.03669489	          0.03739005	          0.02912324	          0.03324825	          0.04129958	          0.08261468	          0.03628070	          0.16050036	          0.03238961	          0.02211679	          0.02285977	          0.04450583	          0.01866777	          0.03020057	          0.03060095	          0.06173057	          0.06289445	          0.02893741	          0.04567158	          0.04119118	          0.03897272	          0.03487497	          0.05400813	          0.05517641	          0.02018762	          0.05721139	          0.04449978	
